<?xml version="1.0" encoding="UTF-8"?>
<svg id="Layer_2" data-name="Layer 2" xmlns="http://www.w3.org/2000/svg" width="1012.08" height="563.36" xmlns:xlink="http://www.w3.org/1999/xlink" viewBox="0 0 1012.08 563.36">
  <defs>
    <symbol id="sidebar" viewBox="0 0 636.45 1816.1">
      <g>
        <rect x="1.51" y="1.51" width="633.43" height="1813.08" rx="24.24" ry="24.24" style="fill: #262422; stroke: #515149; stroke-miterlimit: 10; stroke-width: 3.02px;"/>
        <rect x="28.69" y="98.8" width="579.55" height="65.78" rx="10.3" ry="10.3" style="fill: #35312f;"/>
        <g>
          <rect x="29.56" y="99" width="191.4" height="64.04" rx="5.07" ry="5.07" style="fill: #635d59;"/>
          <path d="M215.88,99.87c2.32,0,4.2,1.89,4.2,4.2v53.89c0,2.32-1.89,4.2-4.2,4.2H34.63c-2.32,0-4.2-1.89-4.2-4.2v-53.89c0-2.32,1.89-4.2,4.2-4.2h181.25M215.88,98.13H34.63c-3.28,0-5.95,2.66-5.95,5.95v53.89c0,3.28,2.66,5.95,5.95,5.95h181.25c3.28,0,5.95-2.66,5.95-5.95v-53.89c0-3.28-2.66-5.95-5.95-5.95h0Z" style="fill: #777772;"/>
        </g>
        <text transform="translate(115.47 139.97)" style="fill: #fff; font-family: -apple-system, BlinkMacSystemFont, 'Segoe UI', Roboto, Helvetica, Arial, sans-serif; font-size: 25.42px;">Life</text>
        <g>
          <g>
            <rect x="49.36" y="307.93" width="10.57" height="10.57" rx="2.22" ry="2.22" style="fill: none; stroke: #89817c; stroke-miterlimit: 10; stroke-width: 2.38px;"/>
            <rect x="63.98" y="322.46" width="10.57" height="10.57" rx="2.22" ry="2.22" style="fill: none; stroke: #89817c; stroke-miterlimit: 10; stroke-width: 2.38px;"/>
            <path d="M59.12,332.53c.5-.41.81-1.02.81-1.72v-6.13c0-1.23-.99-2.22-2.22-2.22h-6.13c-.58,0-1.11.23-1.5.59,1.02,3.79,3.43,8.04,9.04,9.47Z" style="fill: none; stroke: #89817c; stroke-linejoin: round; stroke-width: 2.38px;"/>
            <path d="M65.15,308.06c-.5.41-.81,1.02-.81,1.72v6.13c0,1.23.99,2.22,2.22,2.22h6.13c.58,0,1.11-.23,1.5-.59-1.02-3.79-3.43-8.04-9.04-9.47Z" style="fill: none; stroke: #89817c; stroke-linejoin: round; stroke-width: 2.38px;"/>
          </g>
          <text transform="translate(90.46 329.7)" style="fill: #89817c; font-family: -apple-system, BlinkMacSystemFont, 'Segoe UI', Roboto, Helvetica, Arial, sans-serif; font-size: 29.73px;">Life Dashboard</text>
        </g>
        <g>
          <text transform="translate(90.46 217.47)" style="fill: #89817c; font-family: -apple-system, BlinkMacSystemFont, 'Segoe UI', Roboto, Helvetica, Arial, sans-serif; font-size: 29.73px;">New Conversation</text>
          <path d="M61.96,219.06c6.75,0,12.23-5.47,12.23-12.23s-5.47-12.23-12.23-12.23-12.23,5.47-12.23,12.23,5.47,12.23,12.23,12.23ZM60.81,211.04v-3.06h-3.06c-.64,0-1.15-.51-1.15-1.15s.51-1.15,1.15-1.15h3.06v-3.06c0-.64.51-1.15,1.15-1.15s1.15.51,1.15,1.15v3.06h3.06c.64,0,1.15.51,1.15,1.15s-.51,1.15-1.15,1.15h-3.06v3.06c0,.64-.51,1.15-1.15,1.15s-1.15-.51-1.15-1.15Z" style="fill: #89817c;"/>
        </g>
        <g>
          <path d="M58.27,423.71c0-2.04,1.66-3.69,3.69-3.69s3.69,1.66,3.69,3.69v2.77h-7.38v-2.77ZM55.5,426.48h-3.69c-1.53,0-2.77,1.24-2.77,2.77v12c0,3.06,2.48,5.54,5.54,5.54h14.77c3.06,0,5.54-2.48,5.54-5.54v-12c0-1.53-1.24-2.77-2.77-2.77h-3.69v-2.77c0-3.57-2.89-6.46-6.46-6.46s-6.46,2.89-6.46,6.46v2.77ZM56.88,429.25c.77,0,1.38.62,1.38,1.38s-.62,1.38-1.38,1.38-1.38-.62-1.38-1.38.62-1.38,1.38-1.38ZM65.65,430.63c0-.77.62-1.38,1.38-1.38s1.38.62,1.38,1.38-.62,1.38-1.38,1.38-1.38-.62-1.38-1.38Z" style="fill: #89817c;"/>
          <text transform="translate(90.46 441.92)" style="fill: #89817c; font-family: -apple-system, BlinkMacSystemFont, 'Segoe UI', Roboto, Helvetica, Arial, sans-serif; font-size: 29.73px;">Product Search</text>
        </g>
        <g>
          <path d="M55.74,487.76c1.8.98,3.39,2.32,4.67,3.92.58.73,1.1,1.52,1.55,2.36.45-.84.96-1.62,1.55-2.36,1.28-1.6,2.87-2.94,4.67-3.92,2.19-1.19,4.7-1.87,7.35-1.87h.52c.58,0,1.06.47,1.06,1.06,0,7.78-6.3,14.09-14.09,14.09h-2.11c-7.77,0-14.08-6.3-14.08-14.09,0-.58.47-1.06,1.06-1.06h.52c2.65,0,5.16.67,7.35,1.87ZM62.8,477.79c.89.84,3.23,3.33,4.68,7.48-2.11,1.06-3.99,2.53-5.52,4.32-1.54-1.78-3.41-3.25-5.52-4.32,1.45-4.15,3.8-6.65,4.68-7.48.23-.22.53-.32.84-.32s.61.11.84.32Z" style="fill: #89817c;"/>
          <text transform="translate(90.46 498.03)" style="fill: #89817c; font-family: -apple-system, BlinkMacSystemFont, 'Segoe UI', Roboto, Helvetica, Arial, sans-serif; font-size: 29.73px;">Mental Coach</text>
        </g>
        <line x1="414.81" y1="104.07" x2="414.81" y2="157.96" style="fill: none; stroke: #282423; stroke-miterlimit: 10; stroke-width: 1.74px;"/>
        <text transform="translate(306.8 141.26)" style="fill: #635d59; font-family: -apple-system, BlinkMacSystemFont, 'Segoe UI', Roboto, Helvetica, Arial, sans-serif; font-size: 29.73px;">Work</text>
        <text transform="translate(487.28 141.09)" style="fill: #635d59; font-family: -apple-system, BlinkMacSystemFont, 'Segoe UI', Roboto, Helvetica, Arial, sans-serif; font-size: 29.73px;">Leisure</text>
        <line x1="43.28" y1="713.51" x2="591.72" y2="713.51" style="fill: none; stroke: #383834; stroke-miterlimit: 10; stroke-width: 3px;"/>
        <circle cx="57.51" cy="46.25" r="14.68" style="fill: #474341;"/>
        <circle cx="102.83" cy="46.87" r="14.68" style="fill: #474341;"/>
        <circle cx="148.15" cy="46.25" r="14.68" style="fill: #474341;"/>
        <g>
          <text transform="translate(90.46 273.59)" style="fill: #89817c; font-family: -apple-system, BlinkMacSystemFont, 'Segoe UI', Roboto, Helvetica, Arial, sans-serif; font-size: 29.73px;">Recall</text>
          <path d="M70.44,260.81c0,2.43-.79,4.68-2.12,6.5l6.71,6.71c.66.66.66,1.74,0,2.4s-1.74.66-2.4,0l-6.71-6.71c-1.82,1.33-4.07,2.12-6.5,2.12-6.09,0-11.02-4.93-11.02-11.02s4.93-11.02,11.02-11.02,11.02,4.93,11.02,11.02ZM64.56,261.71c.5-.5.5-1.3,0-1.8l-3.81-3.81c-.5-.5-1.3-.5-1.8,0-.49.5-.5,1.3,0,1.8l1.64,1.64h-5.41c-.7,0-1.27.57-1.27,1.27s.57,1.27,1.27,1.27h5.41l-1.64,1.64c-.5.5-.5,1.3,0,1.8.5.49,1.3.5,1.8,0l3.81-3.81h0Z" style="fill: #89817c;"/>
        </g>
        <g>
          <text transform="translate(90.46 554.14)" style="fill: #89817c; font-family: -apple-system, BlinkMacSystemFont, 'Segoe UI', Roboto, Helvetica, Arial, sans-serif; font-size: 29.73px;">Casebook</text>
          <path d="M59.13,535.71h5.66c.22,0,.4.18.4.4v2.02h-6.47v-2.02c0-.22.18-.4.4-.4ZM56.3,536.11v2.02h-4.04c-1.78,0-3.24,1.45-3.24,3.24v4.85h25.89v-4.85c0-1.78-1.45-3.24-3.24-3.24h-4.04v-2.02c0-1.56-1.27-2.83-2.83-2.83h-5.66c-1.56,0-2.83,1.27-2.83,2.83ZM74.9,548.65h-9.71v.81c0,.89-.72,1.62-1.62,1.62h-3.24c-.89,0-1.62-.72-1.62-1.62v-.81h-9.71v5.66c0,1.78,1.45,3.24,3.24,3.24h19.41c1.78,0,3.24-1.45,3.24-3.24v-5.66Z" style="fill: #89817c;"/>
        </g>
        <g>
          <text transform="translate(90.46 610.25)" style="fill: #89817c; font-family: -apple-system, BlinkMacSystemFont, 'Segoe UI', Roboto, Helvetica, Arial, sans-serif; font-size: 29.73px;">Decision Room</text>
          <path d="M54.94,597.13l-.96-.96c-.64-.64-.64-1.69,0-2.34l5.92-5.92c.64-.64,1.69-.64,2.34,0l.96.97c.64.64.64,1.69,0,2.34l-5.92,5.92c-.64.64-1.69.64-2.34,0ZM60.43,600.14l-1.62-1.62,5.78-5.78,6.16,6.16-5.78,5.78-1.62-1.62-11.97,11.97c-.8.8-2.11.8-2.92,0-.81-.8-.8-2.11,0-2.92l11.97-11.97ZM66.36,608.54c-.64-.64-.64-1.69,0-2.34l5.92-5.92c.64-.64,1.69-.64,2.34,0l.96.96c.64.64.64,1.69,0,2.34l-5.92,5.92c-.64.64-1.69.64-2.34,0l-.96-.96h0Z" style="fill: #89817c;"/>
        </g>
        <g>
          <text transform="translate(90.46 666.36)" style="fill: #89817c; font-family: -apple-system, BlinkMacSystemFont, 'Segoe UI', Roboto, Helvetica, Arial, sans-serif; font-size: 29.73px;">Memory</text>
          <path d="M53.07,645.19c-1.96,0-3.56,1.59-3.56,3.56v17.78c0,1.96,1.59,3.56,3.56,3.56h17.78c1.96,0,3.56-1.59,3.56-3.56v-13.48c0-.94-.37-1.85-1.04-2.52l-4.29-4.29c-.67-.67-1.57-1.04-2.52-1.04h-13.48ZM54.85,650.53c0-.98.79-1.78,1.78-1.78h8.89c.98,0,1.78.79,1.78,1.78v3.56c0,.98-.79,1.78-1.78,1.78h-8.89c-.98,0-1.78-.79-1.78-1.78v-3.56ZM61.96,659.42c1.96,0,3.56,1.59,3.56,3.56s-1.59,3.56-3.56,3.56-3.56-1.59-3.56-3.56,1.59-3.56,3.56-3.56Z" style="fill: #89817c;"/>
        </g>
        <rect x="44.13" y="734.56" width="544.27" height="48.13" rx="6.33" ry="6.33" style="fill: #383834;"/>
        <text transform="translate(57.51 768.77)" style="fill: #89817c; font-family: -apple-system, BlinkMacSystemFont, 'Segoe UI', Roboto, Helvetica, Arial, sans-serif; font-size: 29.73px;">General</text>
        <g>
          <path d="M55.82,372.47c1.36-.59,2.3-1.94,2.3-3.52,0-2.12-1.72-3.84-3.84-3.84s-3.84,1.72-3.84,3.84c0,1.57.95,2.93,2.3,3.52v2.62h-3.07c-.85,0-1.54.69-1.54,1.54s.69,1.54,1.54,1.54h10.75v2.62c-1.36.59-2.3,1.94-2.3,3.52,0,2.12,1.72,3.84,3.84,3.84s3.84-1.72,3.84-3.84c0-1.57-.95-2.93-2.3-3.52v-2.62h10.75c.85,0,1.54-.69,1.54-1.54s-.69-1.54-1.54-1.54h-3.07v-2.62c1.36-.59,2.3-1.94,2.3-3.52,0-2.12-1.72-3.84-3.84-3.84s-3.84,1.72-3.84,3.84c0,1.57.95,2.93,2.3,3.52v2.62h-12.28v-2.62Z" style="fill: #89817c;"/>
          <text transform="translate(90.49 385.81)" style="fill: #89817c; font-family: -apple-system, BlinkMacSystemFont, 'Segoe UI', Roboto, Helvetica, Arial, sans-serif; font-size: 29.73px;">Timeline</text>
        </g>
        <path d="M244.64,32.07c-.73-.67-1.85-.67-2.57,0l-13.24,12.29c-.57.53-.76,1.35-.47,2.07s.97,1.2,1.75,1.2h.95v10.4c0,2.09,1.7,3.78,3.78,3.78h17.02c2.09,0,3.78-1.7,3.78-3.78v-10.4h.95c.78,0,1.48-.48,1.76-1.2s.09-1.55-.47-2.07c0,0-13.24-12.29-13.24-12.29ZM242.41,50.47h1.89c1.57,0,2.84,1.27,2.84,2.84v5.67h-7.56v-5.67c0-1.57,1.27-2.84,2.84-2.84Z" style="fill: #89817c;"/>
        <path d="M285.25,31.41c.18-.9.98-1.55,1.9-1.55h3.64c.92,0,1.72.65,1.9,1.55l.88,4.26c.86.36,1.66.83,2.39,1.39l4.12-1.37c.88-.29,1.84.07,2.3.88l1.82,3.15c.46.8.3,1.81-.4,2.43l-3.24,2.88c.05.45.08.91.08,1.38s-.03.93-.08,1.38l3.25,2.89c.69.61.85,1.63.4,2.43l-1.82,3.15c-.46.8-1.42,1.17-2.3.88l-4.12-1.37c-.74.55-1.54,1.02-2.39,1.39l-.88,4.25c-.19.91-.98,1.55-1.9,1.55h-3.64c-.92,0-1.72-.65-1.9-1.55l-.88-4.25c-.86-.36-1.65-.83-2.39-1.39l-4.14,1.37c-.88.29-1.84-.07-2.3-.88l-1.82-3.15c-.46-.8-.3-1.81.4-2.43l3.25-2.89c-.05-.45-.08-.91-.08-1.38s.03-.93.08-1.38l-3.25-2.89c-.69-.61-.85-1.63-.4-2.43l1.82-3.15c.46-.8,1.42-1.17,2.3-.88l4.12,1.37c.74-.55,1.54-1.02,2.39-1.39l.88-4.25ZM288.97,51.26c2.69-.01,4.86-2.2,4.84-4.88-.01-2.69-2.2-4.86-4.88-4.84-2.69.01-4.86,2.2-4.84,4.88.01,2.69,2.2,4.86,4.88,4.84h0Z" style="fill: #89817c;"/>
        <path d="M332.68,35.57l.96,1.33.96-1.33c1.61-2.22,4.19-3.54,6.93-3.54,4.72,0,8.55,3.83,8.55,8.55v.17c0,7.21-8.99,15.58-13.68,19.16-.8.6-1.77.91-2.77.91s-1.98-.3-2.77-.91c-4.69-3.58-13.68-11.95-13.68-19.16v-.17c0-4.72,3.83-8.55,8.55-8.55,2.74,0,5.33,1.32,6.93,3.54Z" style="fill: #89817c;"/>
        <path d="M278.91,122h4.63c.18,0,.33.15.33.33v1.66h-5.3v-1.66c0-.18.15-.33.33-.33ZM276.59,122.33v1.66h-3.31c-1.46,0-2.65,1.19-2.65,2.65v3.97h21.19v-3.97c0-1.46-1.19-2.65-2.65-2.65h-3.31v-1.66c0-1.28-1.04-2.32-2.32-2.32h-4.63c-1.28,0-2.32,1.04-2.32,2.32ZM291.82,132.6h-7.94v.66c0,.73-.59,1.32-1.32,1.32h-2.65c-.73,0-1.32-.59-1.32-1.32v-.66h-7.94v4.63c0,1.46,1.19,2.65,2.65,2.65h15.89c1.46,0,2.65-1.19,2.65-2.65v-4.63Z" style="fill: #635d59;"/>
        <path d="M559.73,765.18l10.15-9.32c.79-.73.28-2.05-.8-2.05h-20.29c-1.07,0-1.59,1.32-.8,2.05l10.15,9.32c.45.41,1.14.41,1.59,0Z" style="fill: #89817c;"/>
        <g>
          <path d="M209.38,33.44c.39,0,.7.32.7.7v24.2c0,.39-.32.7-.7.7h-20.63c-.39,0-.7-.32-.7-.7v-24.2c0-.39.32-.7.7-.7h20.63M209.38,31.27h-20.63c-1.59,0-2.87,1.29-2.87,2.87v24.2c0,1.59,1.29,2.87,2.87,2.87h20.63c1.59,0,2.87-1.29,2.87-2.87v-24.2c0-1.59-1.29-2.87-2.87-2.87h0Z" style="fill: #89817c;"/>
          <line x1="194.91" y1="61.22" x2="194.91" y2="31.27" style="fill: none; stroke: #89817c; stroke-miterlimit: 10; stroke-width: 2.17px;"/>
        </g>
        <path d="M474.42,134.15c-.21.58-.88.8-1.43.53l-6.2-3.1-.06.11-3.09,6.18h10.16c.62,0,1.11.5,1.11,1.11s-.5,1.11-1.11,1.11h-15.58c-.62,0-1.11-.5-1.11-1.11s.5-1.11,1.11-1.11h2.93l3.59-7.18.06-.11-5.75-2.88c-.55-.27-.78-.95-.43-1.46,1.6-2.39,4.32-3.96,7.41-3.96,4.92,0,8.9,3.99,8.9,8.9,0,1.04-.18,2.03-.5,2.96Z" style="fill: #635d59;"/>
        <path d="M104.05,120.37c.28-.27.69-.36,1.07-.24.43.14.72.55.72,1v8.2c0,5.76-4.75,10.41-10.48,10.41-3.38,0-6.3-2.17-7.35-5.21-1.55,1.35-2.53,3.34-2.53,5.56,0,.58-.47,1.05-1.05,1.05s-1.05-.47-1.05-1.05c0-3.29,1.68-6.19,4.22-7.89,1.55-1.04,3.4-1.59,5.26-1.59h3.51c.58,0,1.05-.47,1.05-1.05s-.47-1.05-1.05-1.05h-3.51c-1.74,0-3.39.39-4.87,1.08,1.02-3.07,3.92-5.29,7.33-5.29,2.91,0,5.08-.97,6.53-1.93.84-.56,1.56-1.23,2.23-1.99h0Z" style="fill: #fff;"/>
      </g>
    </symbol>
  </defs>
  <g id="Layer_1-2" data-name="Layer 1">
    <g>
      <rect width="1012.08" height="563.36" rx="11.14" ry="11.14" style="fill: #1e1a19;"/>
      <text transform="translate(362.89 166.16)" style="fill: #afad9e; font-family: 'EB Garamond', Palatino, 'Palatino Linotype', Georgia, serif; font-size: 24.43px; font-variation-settings: &apos;wght&apos; 400, &apos;opsz&apos; 11;">I am a brain. The rest of me is a mere appendix.</text>
      <path d="M327.28,163.01c-.06.79-.47,3.12.09,3.52.45.32,1.14-.22,1.53-.58.59-.54,1.14-1.07,1.69-1.66.12-.13.35-.25.47-.36,1.1-1.03,2.17-1.99,3.46-2.77,2.19-1.33,4.6-2.05,7.16-2.25l.77-.33c.43.08.88.26,1.32.4.45-.16,1.37-.98,1.05-1.63-.37-.74-.72-1.43-1-2.2-.12-.32.31-.66.59-.72,1.24-.26,1.88.16,2.86-.24.74-.3,1.03-1.16.59-1.83l-1.06-1.64-3.02-4.58c-.31-.47-.24-1,.21-1.36.59-.47.82-1.23.43-1.93-.63-1.15-1.2-1.48-1.4-2.7-.26-1.65-.94-3.13-2-4.35.24,2.86-1.09,4.95-3.68,5.9-2.25.82-4.2.41-6.51,1.35-.75.3-1.4.72-1.91,1.33-.67.8-.72,1.84-.17,2.72.94,1.51,2.56,1.85,3.82,3.26,1.06,1.19.98,2.82-.19,3.9-2.07,1.93-5.46,1.95-7.37,3.58-.64.55-.89,1.39-.48,2.12.32.58.84.88,1.45,1.27-.66.03-1.45.1-2.07-.24s-1-1.08-1.13-1.74c-.26-1.29,1.17-2.31,2.16-2.79l2.59-1.26c.74-.36,1.36-.84,1.9-1.43.84-.92.88-2.21.14-3.22-1.11-1.51-2.76-1.84-4.22-3.44-.96-1.06-1-2.56-.04-3.61.61-.67,1.37-1.13,2.21-1.47,3.44-1.38,6.92-.47,9.81-2.8,1.3-1.05,1.99-2.6,1.85-4.27-.12-1.54-.99-2.92-2.39-3.81-2.1-1.33-4.55-2.04-7.07-2.15,1.96,2.07,3.54,5.21,1.98,7.88-2.28,3.55-7.37,2.89-9.73,6.15-.79,1.09-.7,2.43.13,3.48,1.46,1.83,3.39,2.33,4.53,3.97.66.95.68,2.17-.11,3.02.52-2.08-1.31-3.49-2.88-4.33s-3.1-1.52-4.23-2.91c-1.02-1.24-.96-2.92.13-4.08,2.51-2.68,6.55-2.23,8.98-5.01,1.02-1.16,1.14-2.71.39-4.06-1.14-2.04-3.43-2.48-3.13-4.41-.95-.02-1.86.02-2.76.1-1.26.12-2.22.67-3.26,1.32-1.19.74-2.44,1.34-3.58,2.23.98.08,1.9.22,2.87.39,1.16.2,2.28.38,3.41.69.71.19,1.38.49,1.91.96.71.62.76,1.58.15,2.28-1.62,1.84-5.18,1.71-8.18,3.69-.75.49-1.37,1.08-1.84,1.83-.82,1.33-.66,2.92.36,4.11,2.54,2.94,7.38,2.58,9.21,5.36.53.81.52,1.77.03,2.59-.65,1.1-1.68,1.42-2.58,2.49-.68.81-.72,1.89-.11,2.75.44.61.9,1.1,1.43,1.7l-1.17.07c-.74-1.33-1.8-1.28-2.61-2.81-.56-1.05-.42-2.32.46-3.13l.98-.89c.77-.7.86-1.78.17-2.6-.53-.63-1.27-1.03-2.06-1.33l-2.62-.99c-2.75-1.04-5.42-3.81-4.17-7.1.4-1.05,1.09-1.87,1.96-2.57,2.3-1.84,4.25-1.69,5.69-2.73.5-.36.66-.97.27-1.46-.2-.26-.46-.5-.8-.67-1.94-.95-4.44-.99-6.22.38-1.17.9-1.92,2.21-2.64,3.47-1.08,1.9-1.56,4.03-1.43,6.2.16,2.71,1.93,4.85,4.21,6.11,1,.55,2.02.85,3.2,1.14l-1.3.26c-1.56.31-3.08-.02-4.53-.77.51,1.5,1.19,3.33,2.62,4.13,1.76.99,3.07,2.41,4.07,4.14,2.66,4.59,1.45,6.68,2.57,9.3.57,1.33,1.66,2.16,3.09,2.47,1.89.4,3.86.43,5.77.11,1.37-.23,2.51-.91,3.33-1.98l1.41-1.86c2.22-2.93,6.13-.36,9.1-.68,1.11-.12,1.82-1.04,1.7-2.16-.09-.78-.45-1.49-.89-2.15-.5-.74.33-1.28.9-1.6.34-.19.56-.5.47-.91-.09-.38-.32-.82-.63-1.05l-1.23.45c-.29.11-.52-.08-.77-.09-.8,0-1.59.19-2.37.38-1.95.5-3.67,1.48-5.09,2.91-.7.7-1.27,1.43-1.88,2.21l-1.72,2.21c-.58.74-1.22,1.39-1.97,1.97-1.61,1.26-3.66,1.73-5.65,1.27-1.28-.3-2.22-1.12-2.73-2.32-.76-1.81-.26-3.33-.56-5.07-.03-.17-.07-.43,0-.55.07-.11.29-.26.46-.3,2.08-.5,4.22-.51,6.3-.03.24.06.62.23.72.44Z" style="fill: #47a08f;"/>
      <text transform="translate(363.99 144.13)" style="fill: #47a08f; font-family: 'EB Garamond', Palatino, 'Palatino Linotype', Georgia, serif; font-size: 12.58px; font-variation-settings: &apos;wght&apos; 400, &apos;opsz&apos; 11;">Holmes</text>
      <rect x="300.94" y="231.58" width="584.27" height="118.39" rx="14.71" ry="14.71" style="fill: #3b3a3a;"/>
      <use width="636.45" height="1816.1" transform="translate(5.21 4.58) scale(.31)" xlink:href="#sidebar"/>
      <g>
        <rect x="299.72" y="194.72" width="87.88" height="27.12" rx="13.56" ry="13.56" style="fill: #262626; stroke: #515149; stroke-miterlimit: 10; stroke-width: .92px;"/>
        <text transform="translate(330.28 212.14)" style="fill: #fff; font-family: -apple-system, BlinkMacSystemFont, 'Segoe UI', Roboto, Helvetica, Arial, sans-serif; font-size: 10.04px; ">GLM 5.2</text>
        <path d="M317.29,205.14c.4-.19.67-.6.67-1.07,0-.65-.53-1.18-1.18-1.18s-1.18.53-1.18,1.18c0,.47.28.88.67,1.07v2.08c-.06.03-.12.06-.17.1l-1.69-.97c.03-.44-.18-.88-.59-1.11-.56-.33-1.29-.13-1.61.43s-.13,1.29.43,1.61c.03.02.05.03.08.04v1.91s-.06.03-.08.04c-.56.33-.76,1.05-.43,1.61s1.05.76,1.61.43c.41-.23.62-.67.59-1.11l1.06-.61c-.24-.24-.42-.54-.5-.88l-1.06.61c-.05-.04-.11-.07-.17-.1v-1.91c.06-.03.12-.06.17-.1l1.69.97s0,.06,0,.09c0,.47.28.88.67,1.07v2.08c-.4.19-.67.6-.67,1.07,0,.65.53,1.18,1.18,1.18s1.18-.53,1.18-1.18c0-.47-.28-.88-.67-1.07v-2.08c.06-.03.12-.06.17-.1l1.69.97c-.03.44.18.88.59,1.11.56.33,1.29.13,1.61-.43s.13-1.29-.43-1.61c-.03-.02-.06-.03-.08-.04v-1.91s.06-.03.08-.04c.56-.33.76-1.05.43-1.61s-1.04-.76-1.61-.43c-.41.23-.62.67-.59,1.11l-1.07.61c.24.24.42.54.5.88l1.07-.61c.05.04.11.07.17.1v1.91c-.06.03-.12.06-.17.1l-1.69-.97s0-.06,0-.09c0-.47-.28-.88-.67-1.07v-2.08h0Z" style="fill: #fff;"/>
        <path d="M373.66,211.27c.27.22.66.2.91-.05l2.71-2.71c.19-.19.25-.48.15-.74s-.35-.42-.62-.42h-5.42c-.27,0-.52.17-.63.42s-.05.54.15.74l2.71,2.71.05.05Z" style="fill: #515149;"/>
      </g>
      <g>
        <rect x="392.62" y="194.72" width="100.16" height="27.12" rx="13.56" ry="13.56" style="fill: #262626; stroke: #515149; stroke-miterlimit: 10; stroke-width: .98px;"/>
        <text transform="translate(423.18 212.14)" style="fill: #fff; font-family: -apple-system, BlinkMacSystemFont, 'Segoe UI', Roboto, Helvetica, Arial, sans-serif; font-size: 10.04px;">High effort</text>
        <path d="M476.69,211.27c.27.22.66.2.91-.05l2.71-2.71c.19-.19.25-.48.15-.74s-.35-.42-.62-.42h-5.42c-.27,0-.52.17-.63.42s-.05.54.15.74l2.71,2.71.05.05Z" style="fill: #515149;"/>
        <path d="M411.96,202.98c.24.17.32.48.22.75l-1.56,3.9h2.88c.27,0,.51.17.6.42.09.25.01.54-.19.71l-5.73,4.77c-.22.19-.55.2-.78.03-.24-.17-.32-.48-.22-.75l1.56-3.9h-2.88c-.27,0-.51-.17-.6-.42-.09-.25-.01-.54.19-.71l5.73-4.77c.22-.19.55-.2.78-.03Z" style="fill: #fff;"/>
      </g>
      <g>
        <rect x="497.79" y="195.83" width="87.88" height="27.12" rx="13.56" ry="13.56" style="fill: #262626; stroke: #515149; stroke-miterlimit: 10; stroke-width: .92px;"/>
        <text transform="translate(526.91 212.71)" style="fill: #fff; font-family: -apple-system, BlinkMacSystemFont, 'Segoe UI', Roboto, Helvetica, Arial, sans-serif; font-size: 10.04px;">Detailed</text>
        <path d="M570.1,212.2c.27.22.66.2.91-.05l2.71-2.71c.19-.19.25-.48.15-.74s-.35-.42-.62-.42h-5.42c-.27,0-.52.17-.63.42s-.05.54.15.74l2.71,2.71.05.05Z" style="fill: #515149;"/>
        <path d="M515.31,204.3c0-.65-.53-1.19-1.19-1.19s-1.19.53-1.19,1.19.53,1.19,1.19,1.19,1.19-.53,1.19-1.19ZM515.82,208.81l.98,1.32c.22.3.65.36.95.14.3-.22.36-.65.14-.95l-1.49-2.01c-.53-.72-1.37-1.14-2.27-1.14s-1.74.42-2.27,1.14l-1.49,2.01c-.22.3-.16.72.14.95.3.22.72.16.95-.14l.98-1.32v5.83c0,.37.3.68.68.68s.68-.3.68-.68v-3.39c0-.19.15-.34.34-.34s.34.15.34.34v3.39c0,.37.3.68.68.68s.68-.3.68-.68v-5.83Z" style="fill: #fff;"/>
      </g>
      <g>
        <rect x="591.91" y="196.94" width="87.88" height="27.12" rx="13.56" ry="13.56" style="fill: #262626; stroke: #515149; stroke-miterlimit: 10; stroke-width: .92px;"/>
        <text transform="translate(622.47 214.35)" style="fill: #fff; font-family: -apple-system, BlinkMacSystemFont, 'Segoe UI', Roboto, Helvetica, Arial, sans-serif; font-size: 10.04px;">Context</text>
        <path d="M665.85,213.49c.27.22.66.2.91-.05l2.71-2.71c.19-.19.25-.48.15-.74s-.35-.42-.62-.42h-5.42c-.27,0-.52.17-.63.42s-.05.54.15.74l2.71,2.71.05.05Z" style="fill: #515149;"/>
      </g>
      <path d="M608.5,205.39c.3-.14.65-.14.96,0l4.46,2.06c.17.08.28.25.28.44s-.11.36-.28.44l-4.46,2.06c-.3.14-.65.14-.96,0l-4.46-2.06c-.17-.08-.28-.25-.28-.44s.11-.36.28-.44l4.46-2.06ZM604.74,209.73l3.35,1.55c.56.26,1.22.26,1.78,0l3.35-1.55.7.32c.17.08.28.25.28.44s-.11.36-.28.44l-4.46,2.06c-.3.14-.65.14-.96,0l-4.46-2.06c-.17-.08-.28-.25-.28-.44s.11-.36.28-.44l.7-.32h0ZM604.04,212.66l.7-.32,3.35,1.55c.56.26,1.22.26,1.78,0l3.35-1.55.7.32c.17.08.28.25.28.44s-.11.36-.28.44l-4.46,2.06c-.3.14-.65.14-.96,0l-4.45-2.06c-.17-.08-.28-.25-.28-.44s.11-.36.28-.44Z" style="fill: #fff;"/>
      <text transform="translate(316.62 424.88)" style="fill: #fff; font-family: -apple-system, BlinkMacSystemFont, 'Segoe UI', Roboto, Helvetica, Arial, sans-serif; font-size: 10.79px; opacity: .75;">What should I get my sister for her birthday on 8/3/26?</text>
      <text transform="translate(316.62 449.47)" style="fill: #fff; font-family: -apple-system, BlinkMacSystemFont, 'Segoe UI', Roboto, Helvetica, Arial, sans-serif; font-size: 10.79px; opacity: .75;">Who all went on the camping trip in the summer of 2015?</text>
      <text transform="translate(316.62 474.06)" style="fill: #fff; font-family: -apple-system, BlinkMacSystemFont, 'Segoe UI', Roboto, Helvetica, Arial, sans-serif; font-size: 10.79px; opacity: .75;">Give me some reccomendations for movies based on my interests.</text>
      <text transform="translate(316.78 403.51)" style="fill: #515149; font-family: -apple-system, BlinkMacSystemFont, 'Segoe UI', Roboto, Helvetica, Arial, sans-serif; font-size: 12.24px;">Ideas</text>
      <g>
        <circle cx="564.86" cy="514.97" r="5.42" style="fill: #635d59;"/>
        <circle cx="577.96" cy="514.97" r="3.15" style="fill: #635d59;"/>
        <circle cx="588.78" cy="514.97" r="3.15" style="fill: #635d59;"/>
        <circle cx="599.6" cy="514.97" r="3.15" style="fill: #635d59;"/>
        <circle cx="610.42" cy="514.97" r="3.15" style="fill: #635d59;"/>
        <circle cx="621.24" cy="514.97" r="3.15" style="fill: #635d59;"/>
      </g>
    </g>
  </g>
</svg>