<?xml version="1.0" encoding="UTF-8"?>
<svg id="Layer_2" data-name="Layer 2" xmlns="http://www.w3.org/2000/svg" width="92.74" height="92.44" viewBox="0 0 92.74 92.44">
  <g id="Layer_1-2" data-name="Layer 1">
    <g>
      <rect x="4" y="4" width="35.56" height="35.56" rx="7.47" ry="7.47" style="fill: none; stroke: #47a08f; stroke-miterlimit: 10; stroke-width: 8px;"/>
      <rect x="53.19" y="52.89" width="35.56" height="35.56" rx="7.47" ry="7.47" style="fill: none; stroke: #47a08f; stroke-miterlimit: 10; stroke-width: 8px;"/>
      <path d="M36.82,86.75c1.67-1.37,2.73-3.45,2.73-5.77v-20.62c0-4.12-3.34-7.47-7.47-7.47H11.47c-1.96,0-3.73.76-5.06,1.99,3.42,12.76,11.53,27.06,30.42,31.88Z" style="fill: none; stroke: #47a08f; stroke-linejoin: round; stroke-width: 8px;"/>
      <path d="M57.12,4.44c-1.67,1.37-2.73,3.45-2.73,5.77v20.62c0,4.12,3.34,7.47,7.47,7.47h20.62c1.96,0,3.73-.76,5.06-1.99-3.42-12.76-11.53-27.06-30.42-31.88Z" style="fill: none; stroke: #47a08f; stroke-linejoin: round; stroke-width: 8px;"/>
    </g>
  </g>
</svg>