<?xml version="1.0" encoding="UTF-8"?>
<svg id="Layer_2" data-name="Layer 2" xmlns="http://www.w3.org/2000/svg" width="27.57" height="27.48" viewBox="0 0 27.57 27.48">
  <g id="Layer_1-2" data-name="Layer 1">
    <g>
      <rect x="1.19" y="1.19" width="10.57" height="10.57" rx="2.22" ry="2.22" style="fill: none; stroke: #89817c; stroke-miterlimit: 10; stroke-width: 2.38px;"/>
      <rect x="15.81" y="15.72" width="10.57" height="10.57" rx="2.22" ry="2.22" style="fill: none; stroke: #89817c; stroke-miterlimit: 10; stroke-width: 2.38px;"/>
      <path d="M10.95,25.79c.5-.41.81-1.02.81-1.72v-6.13c0-1.23-.99-2.22-2.22-2.22H3.41c-.58,0-1.11.23-1.5.59,1.02,3.79,3.43,8.04,9.04,9.47Z" style="fill: none; stroke: #89817c; stroke-linejoin: round; stroke-width: 2.38px;"/>
      <path d="M16.98,1.32c-.5.41-.81,1.02-.81,1.72v6.13c0,1.23.99,2.22,2.22,2.22h6.13c.58,0,1.11-.23,1.5-.59-1.02-3.79-3.43-8.04-9.04-9.47Z" style="fill: none; stroke: #89817c; stroke-linejoin: round; stroke-width: 2.38px;"/>
    </g>
  </g>
</svg>